# xmcd CD database file
#
# Track frame offsets:
#	150
#	20845
#	40755
#	63875
#	83762
#	105275
#	127892
#	152490
#	174370
#	197625
#	219902
#	244397
#	247425
#	266132
#
# Disc length: 3896 seconds
#
# Revision: 2
# Processed by: cddbd v1.4PL0 Copyright (c) Steve Scherf et al.
# Submitted via: CDex 1.50
#
DISCID=ba0f360e
DTITLE=Public Announcement - All Work, No Play
DYEAR=1998
DGENRE=R&B
TTITLE0=Body Bumpin' (Yippie-Yi-Yo)
TTITLE1=Turn The Hands
TTITLE2=It's About Time
TTITLE3=D.O.G. In Me
TTITLE4=All Work, No Play
TTITLE5=Alone
TTITLE6=Y To The Yippie (Step On)
TTITLE7=Straight From The Heart
TTITLE8=Homey
TTITLE9=Why You Not Trustin' Me
TTITLE10=Body Bumpin' (Yippie-Yi-Yo) Remix
TTITLE11=Country R&B (Interlude)
TTITLE12=Lonely
TTITLE13=Children Hold On (To Your Dreams)
EXTD=YEAR: 1998
EXTT0=
EXTT1=
EXTT2=
EXTT3=
EXTT4=
EXTT5=
EXTT6=
EXTT7=
EXTT8=
EXTT9=
EXTT10=
EXTT11=
EXTT12=
EXTT13=
PLAYORDER=
